<svg xmlns="http://www.w3.org/2000/svg" viewBox="-12 -12 1559 932" role="img" aria-label="Isle of Wight outline">
  <defs>
    <filter id="orangeGlow" x="-35%" y="-35%" width="170%" height="170%">
      <feGaussianBlur stdDeviation="10" result="blur"/>
      <feColorMatrix in="blur" type="matrix"
        values="1 0 0 0 1
                0 0.55 0 0 0.32
                0 0 0 0 0
                0 0 0 0.75 0" result="glow"/>
      <feMerge>
        <feMergeNode in="glow"/>
        <feMergeNode in="SourceGraphic"/>
      </feMerge>
    </filter>
  </defs>

  <path d="M1535 370 L1451 340 L1410 217 L1286 164 L1105 155 L1029 115 L936 0 L881 32 L851 0 L793 0 L687 137 L522 201 L469 196 L295 288 L180 289 L110 422 L0 498 L297 474 L406 580 L576 655 L717 767 L838 908 L883 908 L1201 792 L1262 557 L1355 491 L1449 481 L1535 403 Z"
        fill="none"
        stroke="#ff8c00"
        stroke-width="12"
        stroke-linejoin="round"
        stroke-linecap="round"
        opacity="0.22"
        filter="url(#orangeGlow)"/>

  <path d="M1535 370 L1451 340 L1410 217 L1286 164 L1105 155 L1029 115 L936 0 L881 32 L851 0 L793 0 L687 137 L522 201 L469 196 L295 288 L180 289 L110 422 L0 498 L297 474 L406 580 L576 655 L717 767 L838 908 L883 908 L1201 792 L1262 557 L1355 491 L1449 481 L1535 403 Z"
        fill="none"
        stroke="#ff8c00"
        stroke-width="5"
        stroke-linejoin="round"
        stroke-linecap="round"
        opacity="0.95"/>
</svg>
